<?xml version="1.0" encoding="UTF-8"?>
<svg width="200px" height="200px" viewBox="0 0 200 200" version="1.1" xmlns="http://www.w3.org/2000/svg" xmlns:xlink="http://www.w3.org/1999/xlink">
    <title>Artboard 2 Copy 2@1x</title>
    <g id="Artboard-2-Copy-2" stroke="none" stroke-width="1" fill="none" fill-rule="evenodd">
        <rect fill="#FFFFFF" x="0" y="0" width="200" height="200"></rect>
        <g id="Group-2" transform="translate(1.000000, 32.000000)">
            <g id="Group">
                <path d="M5.53077948,102.501597 L102.497452,84.1382723 C103.006964,84.041782 103.505699,84.3507842 103.646147,84.8499708 L105.377006,91.0018748 C105.506541,91.4622714 105.291941,91.9499371 104.864974,92.1654426 L17.0646194,136.481352 C16.5715783,136.730207 15.9701525,136.532255 15.7212974,136.039214 C15.7002308,135.997476 15.6821171,135.954312 15.6670898,135.910039 L4.7699124,103.805551 C4.59239837,103.282572 4.87245321,102.71471 5.39543239,102.537196 C5.43966136,102.522183 5.48488778,102.510288 5.53077948,102.501597 Z" id="Rectangle" fill="#FF4040"></path>
                <path d="M23.1789113,99.1377203 L113.578911,82.6988993 C114.05439,82.6124357 114.4,82.1983103 114.4,81.7150341 L114.4,79.4237052 C114.4,78.9400927 114.053921,78.5257804 113.578034,78.4396809 L23.1780341,62.084103 C22.6345725,61.9857775 22.1143012,62.3466316 22.0159757,62.8900932 C22.0053466,62.948842 22,63.0084247 22,63.0681273 L22,98.1538551 C22,98.7061398 22.4477153,99.1538551 23,99.1538551 C23.0600004,99.1538551 23.119879,99.148455 23.1789113,99.1377203 Z" id="Rectangle" fill="#0072CE"></path>
                <path d="M16.3597353,18.3007443 L108.931141,73.9020976 C109.404589,74.1864657 109.557869,74.8007973 109.273501,75.2742455 C109.235902,75.3368432 109.191561,75.3951345 109.141269,75.4480765 L105.622049,79.1527684 C105.387809,79.3993534 105.044299,79.5099798 104.710182,79.4464328 L1.15712679,59.7512718 C0.614568053,59.6480804 0.258390427,59.1245965 0.361581798,58.5820378 C0.371738125,58.528638 0.386231524,58.4761551 0.404917945,58.4251109 L14.9057878,18.8142266 C15.0956476,18.2956018 15.6699878,18.029085 16.1886126,18.2189447 C16.2481163,18.240728 16.3054149,18.2681177 16.3597353,18.3007443 Z" id="Rectangle" fill="#FF4040"></path>
                <path d="M43.0781775,34.598202 L106.066409,74.4453191 C106.533142,74.7405799 107.15086,74.6015744 107.446121,74.1348416 C107.489575,74.0661508 107.524493,73.9924182 107.550101,73.9152757 L109.835469,67.0307258 C109.938551,66.7201958 109.8832,66.3788784 109.687266,66.1168391 L68.5895948,11.1535495 C68.258867,10.7112402 67.6321966,10.6207854 67.1898872,10.9515131 C67.1641795,10.9707356 67.1394122,10.9911846 67.1156715,11.0127894 L42.9397431,33.0135118 C42.5312756,33.3852278 42.5014827,34.0176914 42.8731987,34.4261589 C42.9335083,34.4924313 43.0024517,34.550297 43.0781775,34.598202 Z" id="Rectangle" fill="#0072CE"></path>
                <path d="M107.856086,10.0916098 L113.07405,69.1974591 C113.07796,69.2417474 113.084819,69.2857257 113.094582,69.3291011 L113.739961,72.1964989 C113.813477,72.5231304 113.608287,72.8475145 113.281655,72.921031 C113.043592,72.9746131 112.796609,72.8802335 112.654945,72.6815463 L75.5905621,20.6977618 C75.2699363,20.2480757 75.3745605,19.6236146 75.8242466,19.3029889 C75.9069103,19.2440498 75.9980673,19.1980424 76.094583,19.1665489 L106.549752,9.22888065 C107.074792,9.05755761 107.639306,9.34430176 107.810629,9.86934163 C107.834164,9.94146677 107.849414,10.0160359 107.856086,10.0916098 Z" id="Rectangle" fill="#FF4040"></path>
                <polygon id="Rectangle" fill="#0072CE" points="105.6 2.66911941e-13 113.347115 67.6052757 117.401403 75.1290323 145.2 2.8938022"></polygon>
                <path d="M163.521547,28.2937332 L118.489023,74.6155573 C118.190555,74.9225711 117.729743,75.0054928 117.34297,74.821786 L115.233657,73.8199168 C114.762824,73.5962831 114.542736,73.0484973 114.727964,72.5612737 L137.54233,12.5502993 C137.738588,12.0340617 138.316179,11.774667 138.832417,11.9709249 C138.888531,11.992258 138.942611,12.0186006 138.994,12.0496339 L163.321472,26.7406535 C163.794239,27.0261513 163.946052,27.6408471 163.660554,28.1136149 C163.621221,28.1787472 163.574584,28.2391776 163.521547,28.2937332 Z" id="Rectangle" fill="#FF4040"></path>
                <path d="M155.618353,36.1867156 L119.307324,71.2705612 C119.003143,71.5644611 118.916768,72.0179501 119.091612,72.4030894 L121.94793,78.6948685 C122.165862,79.1749197 122.719048,79.4033235 123.212176,79.2168601 L171.993069,60.7716418 C172.509657,60.5763076 172.770084,59.9991807 172.57475,59.4825929 C172.547879,59.4115282 172.512996,59.3437572 172.470778,59.2805918 L157.144596,36.3501855 C156.837699,35.8910199 156.216683,35.7675812 155.757518,36.0744775 C155.707871,36.10766 155.661297,36.1452229 155.618353,36.1867156 Z" id="Rectangle" fill="#0072CE"></path>
                <path d="M196.806595,88.3534526 L124.171819,86.3057485 C123.630724,86.2904941 123.2,85.8474556 123.2,85.3061457 L123.2,78.0484544 C123.2,77.6233818 123.468723,77.2447624 123.869981,77.1044802 L191.584467,53.4310714 C192.10581,53.2488067 192.676196,53.5236837 192.858461,54.0450263 C192.879182,54.1042952 192.894275,54.165384 192.90354,54.2274833 L197.823829,87.2062875 C197.905325,87.7525263 197.528577,88.2614061 196.982338,88.3429025 C196.924181,88.3515792 196.865372,88.3551096 196.806595,88.3534526 Z" id="Rectangle" fill="#FF4040"></path>
                <path d="M174.124333,86.8264348 L126.557206,84.047312 C126.162919,84.0242758 125.792012,84.2354679 125.610603,84.5863005 L123.644522,88.3885846 C123.396701,88.8678544 123.573771,89.4573037 124.044677,89.7206696 L165.910643,113.135236 C166.392664,113.404818 167.001958,113.232602 167.27154,112.750582 C167.305074,112.690622 167.332339,112.627367 167.352905,112.561818 L175.020148,88.1240904 C175.185479,87.597133 174.892322,87.0359224 174.365365,86.8705916 C174.287135,86.8460472 174.206183,86.831217 174.124333,86.8264348 Z" id="Rectangle" fill="#0072CE"></path>
                <path d="M105.737415,1.1991572 L113.325211,67.4141248 C113.339681,67.5404007 113.378092,67.6627604 113.438386,67.7746515 L116.369257,73.2136248 C116.631247,73.6998137 117.237766,73.8815627 117.723955,73.6195727 C117.934265,73.506244 118.097054,73.3213677 118.182857,73.0984069 L144.715786,4.15204148 C144.914143,3.63660676 144.657101,3.05796425 144.141666,2.85960727 C144.049909,2.82429599 143.953446,2.80270927 143.855391,2.79554378 L106.803795,0.0879683032 C106.252979,0.0477169755 105.773824,0.461611428 105.733573,1.01242744 C105.729026,1.07465426 105.730312,1.13717011 105.737415,1.1991572 Z" id="Rectangle" fill="#0072CE"></path>
                <ellipse id="Oval" fill="#FFF02E" cx="116.6" cy="77.3387097" rx="28.6" ry="28.7258065"></ellipse>
            </g>
        </g>
    </g>
</svg>